<svg xmlns="http://www.w3.org/2000/svg" xmlns:xlink="http://www.w3.org/1999/xlink" width="1000" zoomAndPan="magnify" viewBox="0 0 750 299.999988" height="400" preserveAspectRatio="xMidYMid meet" version="1.0"><defs><g/><clipPath id="27872a8d91"><path d="M 303.101562 93.960938 L 356.777344 93.960938 L 356.777344 132.0625 L 303.101562 132.0625 Z M 303.101562 93.960938 " clip-rule="nonzero"/></clipPath><clipPath id="cdb03656bf"><path d="M 313 31 L 349 31 L 349 143 L 313 143 Z M 313 31 " clip-rule="nonzero"/></clipPath><clipPath id="074b93e842"><path d="M 294.0625 47.90625 L 342.316406 31.398438 L 374.601562 125.78125 L 326.347656 142.285156 Z M 294.0625 47.90625 " clip-rule="nonzero"/></clipPath><clipPath id="90a9fe2676"><path d="M 294.0625 47.90625 L 342.316406 31.398438 L 374.601562 125.78125 L 326.347656 142.285156 Z M 294.0625 47.90625 " clip-rule="nonzero"/></clipPath><clipPath id="5d17e89b02"><path d="M 313 38 L 333 38 L 333 143 L 313 143 Z M 313 38 " clip-rule="nonzero"/></clipPath><clipPath id="5e966a3258"><path d="M 294.0625 47.90625 L 342.316406 31.398438 L 374.601562 125.78125 L 326.347656 142.285156 Z M 294.0625 47.90625 " clip-rule="nonzero"/></clipPath><clipPath id="a3cf919869"><path d="M 294.0625 47.90625 L 342.316406 31.398438 L 374.601562 125.78125 L 326.347656 142.285156 Z M 294.0625 47.90625 " clip-rule="nonzero"/></clipPath><clipPath id="5bcdd0b4af"><path d="M 340 189 L 375 189 L 375 300 L 340 300 Z M 340 189 " clip-rule="nonzero"/></clipPath><clipPath id="02faed64bc"><path d="M 320.191406 205.789062 L 368.445312 189.28125 L 400.730469 283.660156 L 352.476562 300.167969 Z M 320.191406 205.789062 " clip-rule="nonzero"/></clipPath><clipPath id="4b0955d5fa"><path d="M 320.191406 205.789062 L 368.445312 189.28125 L 400.730469 283.660156 L 352.476562 300.167969 Z M 320.191406 205.789062 " clip-rule="nonzero"/></clipPath><clipPath id="8db2b50c89"><path d="M 340 196 L 359 196 L 359 300 L 340 300 Z M 340 196 " clip-rule="nonzero"/></clipPath><clipPath id="265aa39385"><path d="M 320.191406 205.789062 L 368.445312 189.28125 L 400.730469 283.660156 L 352.476562 300.167969 Z M 320.191406 205.789062 " clip-rule="nonzero"/></clipPath><clipPath id="cf4703fb14"><path d="M 320.191406 205.789062 L 368.445312 189.28125 L 400.730469 283.660156 L 352.476562 300.167969 Z M 320.191406 205.789062 " clip-rule="nonzero"/></clipPath></defs><g fill="#000000" fill-opacity="1"><g transform="translate(60.852376, 132.063736)"><g><path d="M 74.296875 -3.75 C 71.554688 -2.050781 68.222656 -0.75 64.296875 0.15625 C 60.367188 1.070312 56.1875 1.53125 51.75 1.53125 C 39.675781 1.53125 30.394531 -1.425781 23.90625 -7.34375 C 17.414062 -13.257812 14.171875 -22.082031 14.171875 -33.8125 L 14.171875 -64.890625 L 0.6875 -64.890625 L 0.6875 -89.140625 L 14.171875 -89.140625 L 14.171875 -113.234375 L 46.625 -113.234375 L 46.625 -89.140625 L 67.796875 -89.140625 L 67.796875 -64.890625 L 46.625 -64.890625 L 46.625 -34.15625 C 46.625 -30.851562 47.503906 -28.257812 49.265625 -26.375 C 51.035156 -24.5 53.398438 -23.5625 56.359375 -23.5625 C 60.117188 -23.5625 63.421875 -24.53125 66.265625 -26.46875 Z M 74.296875 -3.75 "/></g></g></g><g fill="#000000" fill-opacity="1"><g transform="translate(119.774547, 132.063736)"><g><path d="M 70.703125 -94.09375 C 82.203125 -94.09375 91.453125 -90.675781 98.453125 -83.84375 C 105.453125 -77.019531 108.953125 -66.71875 108.953125 -52.9375 L 108.953125 0 L 76.515625 0 L 76.515625 -47.640625 C 76.515625 -60.285156 71.445312 -66.609375 61.3125 -66.609375 C 55.726562 -66.609375 51.253906 -64.785156 47.890625 -61.140625 C 44.535156 -57.492188 42.859375 -52.03125 42.859375 -44.75 L 42.859375 0 L 10.421875 0 L 10.421875 -126.71875 L 42.859375 -126.71875 L 42.859375 -84.03125 C 46.390625 -87.332031 50.546875 -89.832031 55.328125 -91.53125 C 60.109375 -93.238281 65.234375 -94.09375 70.703125 -94.09375 Z M 70.703125 -94.09375 "/></g></g></g><g fill="#000000" fill-opacity="1"><g transform="translate(221.223198, 132.063736)"><g><path d="M 107.765625 -92.5625 L 107.765625 0 L 76.84375 0 L 76.84375 -9.90625 C 73.4375 -6.144531 69.335938 -3.296875 64.546875 -1.359375 C 59.765625 0.566406 54.703125 1.53125 49.359375 1.53125 C 37.398438 1.53125 27.863281 -1.992188 20.75 -9.046875 C 13.632812 -16.109375 10.078125 -26.695312 10.078125 -40.8125 L 10.078125 -92.5625 L 42.53125 -92.5625 L 42.53125 -46.109375 C 42.53125 -39.160156 43.835938 -34.09375 46.453125 -30.90625 C 49.066406 -27.71875 52.878906 -26.125 57.890625 -26.125 C 63.015625 -26.125 67.195312 -27.914062 70.4375 -31.5 C 73.6875 -35.09375 75.3125 -40.585938 75.3125 -47.984375 L 75.3125 -92.5625 Z M 107.765625 -92.5625 "/></g></g></g><g fill="#000000" fill-opacity="1"><g transform="translate(321.988683, 132.063736)"><g><path d="M 70.703125 -94.09375 C 82.203125 -94.09375 91.453125 -90.675781 98.453125 -83.84375 C 105.453125 -77.019531 108.953125 -66.71875 108.953125 -52.9375 L 108.953125 0 L 76.515625 0 L 76.515625 -47.640625 C 76.515625 -60.285156 71.445312 -66.609375 61.3125 -66.609375 C 55.726562 -66.609375 51.253906 -64.785156 47.890625 -61.140625 C 44.535156 -57.492188 42.859375 -52.03125 42.859375 -44.75 L 42.859375 0 L 10.421875 0 L 10.421875 -92.5625 L 41.328125 -92.5625 L 41.328125 -82.484375 C 44.972656 -86.242188 49.300781 -89.117188 54.3125 -91.109375 C 59.320312 -93.097656 64.785156 -94.09375 70.703125 -94.09375 Z M 70.703125 -94.09375 "/></g></g></g><g fill="#000000" fill-opacity="1"><g transform="translate(423.437351, 132.063736)"><g><path d="M 108.78125 -126.71875 L 108.78125 0 L 77.875 0 L 77.875 -9.21875 C 71.84375 -2.050781 62.789062 1.53125 50.71875 1.53125 C 42.289062 1.53125 34.601562 -0.429688 27.65625 -4.359375 C 20.71875 -8.285156 15.226562 -13.890625 11.1875 -21.171875 C 7.144531 -28.460938 5.125 -36.890625 5.125 -46.453125 C 5.125 -56.015625 7.144531 -64.410156 11.1875 -71.640625 C 15.226562 -78.867188 20.71875 -84.414062 27.65625 -88.28125 C 34.601562 -92.15625 42.289062 -94.09375 50.71875 -94.09375 C 61.757812 -94.09375 70.300781 -90.90625 76.34375 -84.53125 L 76.34375 -126.71875 Z M 57.546875 -24.25 C 63.128906 -24.25 67.738281 -26.210938 71.375 -30.140625 C 75.019531 -34.066406 76.84375 -39.503906 76.84375 -46.453125 C 76.84375 -53.285156 75.050781 -58.632812 71.46875 -62.5 C 67.882812 -66.375 63.242188 -68.3125 57.546875 -68.3125 C 51.859375 -68.3125 47.191406 -66.375 43.546875 -62.5 C 39.898438 -58.632812 38.078125 -53.285156 38.078125 -46.453125 C 38.078125 -39.503906 39.898438 -34.066406 43.546875 -30.140625 C 47.191406 -26.210938 51.859375 -24.25 57.546875 -24.25 Z M 57.546875 -24.25 "/></g></g></g><g fill="#000000" fill-opacity="1"><g transform="translate(525.227592, 132.063736)"><g><path d="M 105.03125 -46.109375 C 105.03125 -45.878906 104.859375 -43.203125 104.515625 -38.078125 L 37.234375 -38.078125 C 38.597656 -33.296875 41.242188 -29.625 45.171875 -27.0625 C 49.097656 -24.5 54.019531 -23.21875 59.9375 -23.21875 C 64.382812 -23.21875 68.226562 -23.84375 71.46875 -25.09375 C 74.71875 -26.351562 77.992188 -28.40625 81.296875 -31.25 L 98.375 -13.484375 C 89.375 -3.472656 76.222656 1.53125 58.921875 1.53125 C 48.097656 1.53125 38.585938 -0.515625 30.390625 -4.609375 C 22.203125 -8.710938 15.859375 -14.40625 11.359375 -21.6875 C 6.859375 -28.976562 4.609375 -37.234375 4.609375 -46.453125 C 4.609375 -55.554688 6.800781 -63.722656 11.1875 -70.953125 C 15.570312 -78.179688 21.632812 -83.84375 29.375 -87.9375 C 37.113281 -92.039062 45.820312 -94.09375 55.5 -94.09375 C 64.726562 -94.09375 73.097656 -92.1875 80.609375 -88.375 C 88.117188 -84.5625 94.066406 -79.039062 98.453125 -71.8125 C 102.835938 -64.582031 105.03125 -56.015625 105.03125 -46.109375 Z M 55.671875 -71.046875 C 50.660156 -71.046875 46.472656 -69.617188 43.109375 -66.765625 C 39.753906 -63.921875 37.625 -60.050781 36.71875 -55.15625 L 74.625 -55.15625 C 73.71875 -60.050781 71.582031 -63.921875 68.21875 -66.765625 C 64.863281 -69.617188 60.679688 -71.046875 55.671875 -71.046875 Z M 55.671875 -71.046875 "/></g></g></g><g fill="#000000" fill-opacity="1"><g transform="translate(617.453646, 132.063736)"><g><path d="M 41.328125 -81.46875 C 44.628906 -85.675781 48.925781 -88.832031 54.21875 -90.9375 C 59.519531 -93.039062 65.582031 -94.09375 72.40625 -94.09375 L 72.40625 -64.890625 C 69.445312 -65.234375 67 -65.40625 65.0625 -65.40625 C 58.125 -65.40625 52.6875 -63.523438 48.75 -59.765625 C 44.820312 -56.015625 42.859375 -50.269531 42.859375 -42.53125 L 42.859375 0 L 10.421875 0 L 10.421875 -92.5625 L 41.328125 -92.5625 Z M 41.328125 -81.46875 "/></g></g></g><g clip-path="url(#27872a8d91)"><path fill="#000000" d="M 303.101562 93.960938 L 356.832031 93.960938 L 356.832031 132.0625 L 303.101562 132.0625 Z M 303.101562 93.960938 " fill-opacity="1" fill-rule="nonzero"/></g><g clip-path="url(#cdb03656bf)"><g clip-path="url(#074b93e842)"><g clip-path="url(#90a9fe2676)"><path fill="#f2de06" d="M 317.835938 39.773438 L 342.011719 31.503906 L 333.949219 70.546875 L 348.121094 65.699219 L 326.304688 142.101562 L 329.101562 87.675781 L 313.941406 93.714844 Z M 317.835938 39.773438 " fill-opacity="1" fill-rule="nonzero"/></g></g></g><g clip-path="url(#5d17e89b02)"><g clip-path="url(#5e966a3258)"><g clip-path="url(#a3cf919869)"><path fill="#f2de06" d="M 317.835938 39.773438 L 322.003906 38.347656 L 313.941406 93.714844 Z M 326.304688 142.101562 L 332.019531 86.679688 L 329.101562 87.675781 Z M 326.304688 142.101562 " fill-opacity="1" fill-rule="nonzero"/></g></g></g><g fill="#d83f38" fill-opacity="1"><g transform="translate(170.516013, 286.743065)"><g><path d="M 45.765625 -89.140625 L 67.796875 -89.140625 L 67.796875 -64.890625 L 46.625 -64.890625 L 46.625 0 L 14.171875 0 L 14.171875 -64.890625 L 0.6875 -64.890625 L 0.6875 -89.140625 L 14.171875 -89.140625 L 14.171875 -91.53125 C 14.171875 -102.8125 17.554688 -111.75 24.328125 -118.34375 C 31.109375 -124.945312 40.585938 -128.25 52.765625 -128.25 C 56.867188 -128.25 60.851562 -127.847656 64.71875 -127.046875 C 68.59375 -126.253906 71.785156 -125.0625 74.296875 -123.46875 L 66.265625 -100.59375 C 63.078125 -102.414062 59.832031 -103.328125 56.53125 -103.328125 C 53.113281 -103.328125 50.460938 -102.300781 48.578125 -100.25 C 46.703125 -98.195312 45.765625 -95.179688 45.765625 -91.203125 Z M 45.765625 -89.140625 "/></g></g></g><g fill="#d83f38" fill-opacity="1"><g transform="translate(222.423254, 286.743065)"><g><path d="M 10.421875 -126.71875 L 42.859375 -126.71875 L 42.859375 0 L 10.421875 0 Z M 10.421875 -126.71875 "/></g></g></g><g fill="#d83f38" fill-opacity="1"><g transform="translate(258.450047, 286.743065)"><g><path d="M 49.875 -94.09375 C 65.238281 -94.09375 76.960938 -90.59375 85.046875 -83.59375 C 93.128906 -76.59375 97.171875 -65.863281 97.171875 -51.40625 L 97.171875 0 L 66.953125 0 L 66.953125 -11.953125 C 62.273438 -2.960938 53.164062 1.53125 39.625 1.53125 C 32.445312 1.53125 26.238281 0.28125 21 -2.21875 C 15.769531 -4.726562 11.816406 -8.113281 9.140625 -12.375 C 6.460938 -16.644531 5.125 -21.515625 5.125 -26.984375 C 5.125 -35.753906 8.484375 -42.554688 15.203125 -47.390625 C 21.921875 -52.234375 32.28125 -54.65625 46.28125 -54.65625 L 64.71875 -54.65625 C 64.15625 -64.445312 57.613281 -69.34375 45.09375 -69.34375 C 40.644531 -69.34375 36.144531 -68.628906 31.59375 -67.203125 C 27.039062 -65.773438 23.171875 -63.8125 19.984375 -61.3125 L 9.046875 -83.34375 C 14.171875 -86.757812 20.40625 -89.40625 27.75 -91.28125 C 35.09375 -93.15625 42.46875 -94.09375 49.875 -94.09375 Z M 48.671875 -18.953125 C 52.429688 -18.953125 55.734375 -19.863281 58.578125 -21.6875 C 61.421875 -23.507812 63.46875 -26.1875 64.71875 -29.71875 L 64.71875 -37.75 L 50.71875 -37.75 C 41.269531 -37.75 36.546875 -34.613281 36.546875 -28.34375 C 36.546875 -25.5 37.625 -23.222656 39.78125 -21.515625 C 41.945312 -19.804688 44.910156 -18.953125 48.671875 -18.953125 Z M 48.671875 -18.953125 "/></g></g></g><g fill="#d83f38" fill-opacity="1"><g transform="translate(348.265578, 286.743065)"><g><path d="M 44.0625 1.53125 C 36.320312 1.53125 28.691406 0.648438 21.171875 -1.109375 C 13.660156 -2.867188 7.628906 -5.175781 3.078125 -8.03125 L 12.8125 -30.234375 C 17.019531 -27.609375 22.023438 -25.523438 27.828125 -23.984375 C 33.640625 -22.453125 39.394531 -21.6875 45.09375 -21.6875 C 50.320312 -21.6875 54.046875 -22.226562 56.265625 -23.3125 C 58.492188 -24.394531 59.609375 -25.960938 59.609375 -28.015625 C 59.609375 -30.054688 58.269531 -31.503906 55.59375 -32.359375 C 52.914062 -33.210938 48.671875 -34.039062 42.859375 -34.84375 C 35.460938 -35.75 29.171875 -36.941406 23.984375 -38.421875 C 18.804688 -39.898438 14.335938 -42.628906 10.578125 -46.609375 C 6.828125 -50.597656 4.953125 -56.179688 4.953125 -63.359375 C 4.953125 -69.273438 6.71875 -74.539062 10.25 -79.15625 C 13.78125 -83.769531 18.929688 -87.410156 25.703125 -90.078125 C 32.472656 -92.753906 40.582031 -94.09375 50.03125 -94.09375 C 56.75 -94.09375 63.410156 -93.410156 70.015625 -92.046875 C 76.617188 -90.679688 82.144531 -88.75 86.59375 -86.25 L 76.84375 -64.21875 C 68.65625 -68.769531 59.773438 -71.046875 50.203125 -71.046875 C 45.085938 -71.046875 41.332031 -70.445312 38.9375 -69.25 C 36.550781 -68.050781 35.359375 -66.488281 35.359375 -64.5625 C 35.359375 -62.394531 36.664062 -60.882812 39.28125 -60.03125 C 41.894531 -59.175781 46.222656 -58.289062 52.265625 -57.375 C 59.890625 -56.238281 66.207031 -54.929688 71.21875 -53.453125 C 76.226562 -51.972656 80.582031 -49.269531 84.28125 -45.34375 C 87.976562 -41.414062 89.828125 -35.921875 89.828125 -28.859375 C 89.828125 -23.054688 88.0625 -17.847656 84.53125 -13.234375 C 81.007812 -8.617188 75.800781 -5.003906 68.90625 -2.390625 C 62.019531 0.222656 53.738281 1.53125 44.0625 1.53125 Z M 44.0625 1.53125 "/></g></g></g><g fill="#d83f38" fill-opacity="1"><g transform="translate(424.249698, 286.743065)"><g><path d="M 70.703125 -94.09375 C 82.203125 -94.09375 91.453125 -90.675781 98.453125 -83.84375 C 105.453125 -77.019531 108.953125 -66.71875 108.953125 -52.9375 L 108.953125 0 L 76.515625 0 L 76.515625 -47.640625 C 76.515625 -60.285156 71.445312 -66.609375 61.3125 -66.609375 C 55.726562 -66.609375 51.253906 -64.785156 47.890625 -61.140625 C 44.535156 -57.492188 42.859375 -52.03125 42.859375 -44.75 L 42.859375 0 L 10.421875 0 L 10.421875 -126.71875 L 42.859375 -126.71875 L 42.859375 -84.03125 C 46.390625 -87.332031 50.546875 -89.832031 55.328125 -91.53125 C 60.109375 -93.238281 65.234375 -94.09375 70.703125 -94.09375 Z M 70.703125 -94.09375 "/></g></g></g><g fill="#000000" fill-opacity="1"><g transform="translate(525.692176, 286.743065)"><g/></g></g><g clip-path="url(#5bcdd0b4af)"><g clip-path="url(#02faed64bc)"><g clip-path="url(#4b0955d5fa)"><path fill="#f2de06" d="M 343.964844 197.65625 L 368.140625 189.386719 L 360.078125 228.429688 L 374.25 223.582031 L 352.433594 299.984375 L 355.230469 245.558594 L 340.070312 251.597656 Z M 343.964844 197.65625 " fill-opacity="1" fill-rule="nonzero"/></g></g></g><g clip-path="url(#8db2b50c89)"><g clip-path="url(#265aa39385)"><g clip-path="url(#cf4703fb14)"><path fill="#f2de06" d="M 343.964844 197.65625 L 348.132812 196.230469 L 340.070312 251.597656 Z M 352.433594 299.984375 L 358.148438 244.5625 L 355.230469 245.558594 Z M 352.433594 299.984375 " fill-opacity="1" fill-rule="nonzero"/></g></g></g></svg>